<svg width="430" height="354" viewBox="0 0 430 354" fill="none" xmlns="http://www.w3.org/2000/svg">
<circle cx="5.89939" cy="5.89939" r="5.89939" fill="#E6E6E6"/>
<circle cx="5.89939" cy="43.9177" r="5.89939" fill="#E6E6E6"/>
<circle cx="5.89939" cy="81.936" r="5.89939" fill="#E6E6E6"/>
<circle cx="5.89939" cy="119.954" r="5.89939" fill="#E6E6E6"/>
<circle cx="5.89939" cy="157.973" r="5.89939" fill="#E6E6E6"/>
<circle cx="5.89939" cy="195.991" r="5.89939" fill="#E6E6E6"/>
<circle cx="5.89939" cy="234.009" r="5.89939" fill="#E6E6E6"/>
<circle cx="5.89939" cy="272.027" r="5.89939" fill="#E6E6E6"/>
<circle cx="5.89939" cy="310.046" r="5.89939" fill="#E6E6E6"/>
<circle cx="5.89939" cy="348.064" r="5.89939" fill="#E6E6E6"/>
<circle cx="157.973" cy="5.89939" r="5.89939" fill="#E6E6E6"/>
<circle cx="157.973" cy="43.9177" r="5.89939" fill="#E6E6E6"/>
<circle cx="157.973" cy="81.936" r="5.89939" fill="#E6E6E6"/>
<circle cx="157.973" cy="119.954" r="5.89939" fill="#E6E6E6"/>
<circle cx="157.973" cy="157.973" r="5.89939" fill="#E6E6E6"/>
<circle cx="157.973" cy="195.991" r="5.89939" fill="#E6E6E6"/>
<circle cx="157.973" cy="234.009" r="5.89939" fill="#E6E6E6"/>
<circle cx="157.973" cy="272.027" r="5.89939" fill="#E6E6E6"/>
<circle cx="157.973" cy="310.046" r="5.89939" fill="#E6E6E6"/>
<circle cx="157.973" cy="348.064" r="5.89939" fill="#E6E6E6"/>
<circle cx="310.046" cy="5.89939" r="5.89939" fill="#E6E6E6"/>
<circle cx="310.046" cy="43.9177" r="5.89939" fill="#E6E6E6"/>
<circle cx="310.046" cy="81.936" r="5.89939" fill="#E6E6E6"/>
<circle cx="310.046" cy="119.954" r="5.89939" fill="#E6E6E6"/>
<circle cx="310.046" cy="157.973" r="5.89939" fill="#E6E6E6"/>
<circle cx="310.046" cy="195.991" r="5.89939" fill="#E6E6E6"/>
<circle cx="310.046" cy="234.009" r="5.89939" fill="#E6E6E6"/>
<circle cx="310.046" cy="272.027" r="5.89939" fill="#E6E6E6"/>
<circle cx="310.046" cy="310.046" r="5.89939" fill="#E6E6E6"/>
<circle cx="310.046" cy="348.064" r="5.89939" fill="#E6E6E6"/>
<circle cx="81.936" cy="5.89939" r="5.89939" fill="#E6E6E6"/>
<circle cx="81.936" cy="43.9177" r="5.89939" fill="#E6E6E6"/>
<circle cx="81.936" cy="81.936" r="5.89939" fill="#E6E6E6"/>
<circle cx="81.936" cy="119.954" r="5.89939" fill="#E6E6E6"/>
<circle cx="81.936" cy="157.973" r="5.89939" fill="#E6E6E6"/>
<circle cx="81.936" cy="195.991" r="5.89939" fill="#E6E6E6"/>
<circle cx="81.936" cy="234.009" r="5.89939" fill="#E6E6E6"/>
<circle cx="81.936" cy="272.027" r="5.89939" fill="#E6E6E6"/>
<circle cx="81.936" cy="310.046" r="5.89939" fill="#E6E6E6"/>
<circle cx="81.936" cy="348.064" r="5.89939" fill="#E6E6E6"/>
<circle cx="234.009" cy="5.89939" r="5.89939" fill="#E6E6E6"/>
<circle cx="234.009" cy="43.9177" r="5.89939" fill="#E6E6E6"/>
<circle cx="234.009" cy="81.936" r="5.89939" fill="#E6E6E6"/>
<circle cx="234.009" cy="119.954" r="5.89939" fill="#E6E6E6"/>
<circle cx="234.009" cy="157.973" r="5.89939" fill="#E6E6E6"/>
<circle cx="234.009" cy="195.991" r="5.89939" fill="#E6E6E6"/>
<circle cx="234.009" cy="234.009" r="5.89939" fill="#E6E6E6"/>
<circle cx="234.009" cy="272.027" r="5.89939" fill="#E6E6E6"/>
<circle cx="234.009" cy="310.046" r="5.89939" fill="#E6E6E6"/>
<circle cx="234.009" cy="348.064" r="5.89939" fill="#E6E6E6"/>
<circle cx="386.082" cy="5.89939" r="5.89939" fill="#E6E6E6"/>
<circle cx="386.082" cy="43.9177" r="5.89939" fill="#E6E6E6"/>
<circle cx="386.082" cy="81.936" r="5.89939" fill="#E6E6E6"/>
<circle cx="386.082" cy="119.954" r="5.89939" fill="#E6E6E6"/>
<circle cx="386.082" cy="157.973" r="5.89939" fill="#E6E6E6"/>
<circle cx="386.082" cy="195.991" r="5.89939" fill="#E6E6E6"/>
<circle cx="386.082" cy="234.009" r="5.89939" fill="#E6E6E6"/>
<circle cx="386.082" cy="272.027" r="5.89939" fill="#E6E6E6"/>
<circle cx="386.082" cy="310.046" r="5.89939" fill="#E6E6E6"/>
<circle cx="386.082" cy="348.064" r="5.89939" fill="#E6E6E6"/>
<circle cx="43.9175" cy="5.89939" r="5.89939" fill="#E6E6E6"/>
<circle cx="43.9175" cy="43.9177" r="5.89939" fill="#E6E6E6"/>
<circle cx="43.9175" cy="81.936" r="5.89939" fill="#E6E6E6"/>
<circle cx="43.9175" cy="119.954" r="5.89939" fill="#E6E6E6"/>
<circle cx="43.9175" cy="157.973" r="5.89939" fill="#E6E6E6"/>
<circle cx="43.9175" cy="195.991" r="5.89939" fill="#E6E6E6"/>
<circle cx="43.9175" cy="234.009" r="5.89939" fill="#E6E6E6"/>
<circle cx="43.9175" cy="272.027" r="5.89939" fill="#E6E6E6"/>
<circle cx="43.9175" cy="310.046" r="5.89939" fill="#E6E6E6"/>
<circle cx="43.9175" cy="348.064" r="5.89939" fill="#E6E6E6"/>
<circle cx="195.991" cy="5.89939" r="5.89939" fill="#E6E6E6"/>
<circle cx="195.991" cy="43.9177" r="5.89939" fill="#E6E6E6"/>
<circle cx="195.991" cy="81.936" r="5.89939" fill="#E6E6E6"/>
<circle cx="195.991" cy="119.954" r="5.89939" fill="#E6E6E6"/>
<circle cx="195.991" cy="157.973" r="5.89939" fill="#E6E6E6"/>
<circle cx="195.991" cy="195.991" r="5.89939" fill="#E6E6E6"/>
<circle cx="195.991" cy="234.009" r="5.89939" fill="#E6E6E6"/>
<circle cx="195.991" cy="272.027" r="5.89939" fill="#E6E6E6"/>
<circle cx="195.991" cy="310.046" r="5.89939" fill="#E6E6E6"/>
<circle cx="195.991" cy="348.064" r="5.89939" fill="#E6E6E6"/>
<circle cx="348.064" cy="5.89939" r="5.89939" fill="#E6E6E6"/>
<circle cx="348.064" cy="43.9177" r="5.89939" fill="#E6E6E6"/>
<circle cx="348.064" cy="81.936" r="5.89939" fill="#E6E6E6"/>
<circle cx="348.064" cy="119.954" r="5.89939" fill="#E6E6E6"/>
<circle cx="348.064" cy="157.973" r="5.89939" fill="#E6E6E6"/>
<circle cx="348.064" cy="195.991" r="5.89939" fill="#E6E6E6"/>
<circle cx="348.064" cy="234.009" r="5.89939" fill="#E6E6E6"/>
<circle cx="348.064" cy="272.027" r="5.89939" fill="#E6E6E6"/>
<circle cx="348.064" cy="310.046" r="5.89939" fill="#E6E6E6"/>
<circle cx="348.064" cy="348.064" r="5.89939" fill="#E6E6E6"/>
<circle cx="119.954" cy="5.89939" r="5.89939" fill="#E6E6E6"/>
<circle cx="119.954" cy="43.9177" r="5.89939" fill="#E6E6E6"/>
<circle cx="119.954" cy="81.936" r="5.89939" fill="#E6E6E6"/>
<circle cx="119.954" cy="119.954" r="5.89939" fill="#E6E6E6"/>
<circle cx="119.954" cy="157.973" r="5.89939" fill="#E6E6E6"/>
<circle cx="119.954" cy="195.991" r="5.89939" fill="#E6E6E6"/>
<circle cx="119.954" cy="234.009" r="5.89939" fill="#E6E6E6"/>
<circle cx="119.954" cy="272.027" r="5.89939" fill="#E6E6E6"/>
<circle cx="119.954" cy="310.046" r="5.89939" fill="#E6E6E6"/>
<circle cx="119.954" cy="348.064" r="5.89939" fill="#E6E6E6"/>
<circle cx="272.027" cy="5.89939" r="5.89939" fill="#E6E6E6"/>
<circle cx="272.027" cy="43.9177" r="5.89939" fill="#E6E6E6"/>
<circle cx="272.027" cy="81.936" r="5.89939" fill="#E6E6E6"/>
<circle cx="272.027" cy="119.954" r="5.89939" fill="#E6E6E6"/>
<circle cx="272.027" cy="157.973" r="5.89939" fill="#E6E6E6"/>
<circle cx="272.027" cy="195.991" r="5.89939" fill="#E6E6E6"/>
<circle cx="272.027" cy="234.009" r="5.89939" fill="#E6E6E6"/>
<circle cx="272.027" cy="272.027" r="5.89939" fill="#E6E6E6"/>
<circle cx="272.027" cy="310.046" r="5.89939" fill="#E6E6E6"/>
<circle cx="272.027" cy="348.064" r="5.89939" fill="#E6E6E6"/>
<circle cx="424.101" cy="5.89939" r="5.89939" fill="#E6E6E6"/>
<circle cx="424.101" cy="43.9177" r="5.89939" fill="#E6E6E6"/>
<circle cx="424.101" cy="81.936" r="5.89939" fill="#E6E6E6"/>
<circle cx="424.101" cy="119.954" r="5.89939" fill="#E6E6E6"/>
<circle cx="424.101" cy="157.973" r="5.89939" fill="#E6E6E6"/>
<circle cx="424.101" cy="195.991" r="5.89939" fill="#E6E6E6"/>
<circle cx="424.101" cy="234.009" r="5.89939" fill="#E6E6E6"/>
<circle cx="424.101" cy="272.027" r="5.89939" fill="#E6E6E6"/>
<circle cx="424.101" cy="310.046" r="5.89939" fill="#E6E6E6"/>
<circle cx="424.101" cy="348.064" r="5.89939" fill="#E6E6E6"/>
</svg>
