<svg width="30" height="25" viewBox="0 0 30 25" fill="none" xmlns="http://www.w3.org/2000/svg">
<path d="M25.6066 16.1611C23.9729 14.7997 22.0283 13.7918 19.9066 13.1817C22.179 11.8775 23.6719 9.69473 23.6719 7.22656C23.6719 3.24185 19.7817 0 15 0C10.2183 0 6.32812 3.24185 6.32812 7.22656C6.32812 9.69473 7.82103 11.8775 10.0935 13.1817C7.9718 13.7918 6.02719 14.7997 4.39342 16.1611C1.56029 18.5221 0 21.6611 0 25H2.34375C2.34375 19.1844 8.02131 14.4531 15 14.4531C21.9787 14.4531 27.6562 19.1844 27.6562 25H30C30 21.6611 28.4397 18.5221 25.6066 16.1611ZM15 12.5C11.5107 12.5 8.67188 10.1344 8.67188 7.22656C8.67188 4.31875 11.5107 1.95312 15 1.95312C18.4893 1.95312 21.3281 4.31875 21.3281 7.22656C21.3281 10.1344 18.4893 12.5 15 12.5Z" fill="#2E266F"/>
</svg>
